<svg width="256" height="256" viewBox="0 0 256 256" xmlns="http://www.w3.org/2000/svg">
  <defs>
    <linearGradient id="g" x1="0" y1="0" x2="1" y2="1">
      <stop offset="0" stop-color="#6D7CFF"/>
      <stop offset="1" stop-color="#3FD2E0"/>
    </linearGradient>
    <linearGradient id="sheen" x1="0" y1="0" x2="0" y2="1">
      <stop offset="0" stop-color="#FFFFFF" stop-opacity="0.22"/>
      <stop offset="0.5" stop-color="#FFFFFF" stop-opacity="0"/>
    </linearGradient>
    <filter id="soft" x="-20%" y="-20%" width="140%" height="140%">
      <feDropShadow dx="0" dy="6" stdDeviation="10" flood-color="#6D7CFF" flood-opacity="0.35"/>
    </filter>
  </defs>

  <!-- Щит -->
  <path filter="url(#soft)" fill="url(#g)" d="M128 30
    C 104 42, 76 48, 52 50
    L 52 112
    C 52 170, 86 208, 128 228
    C 170 208, 204 170, 204 112
    L 204 50
    C 180 48, 152 42, 128 30 Z"/>

  <!-- Блик сверху -->
  <path fill="url(#sheen)" d="M128 30
    C 104 42, 76 48, 52 50
    L 52 112
    C 52 130, 56 146, 64 160
    C 64 110, 90 70, 128 56
    C 166 70, 192 110, 192 160
    C 200 146, 204 130, 204 112
    L 204 50
    C 180 48, 152 42, 128 30 Z"/>

  <!-- Галочка «защищено / проверено» -->
  <path d="M92 130 L118 156 L168 98" fill="none" stroke="#FFFFFF"
        stroke-width="20" stroke-linecap="round" stroke-linejoin="round"/>
</svg>
